<mxfile host="app.diagrams.net" modified="2021-04-28T05:27:47.871Z" agent="5.0 (Macintosh; Intel Mac OS X 10_11_6) AppleWebKit/537.36 (KHTML, like Gecko) Chrome/77.0.3865.90 Safari/537.36" etag="WLrXC0hh9TDFvo2cecSi" version="14.6.6" type="github">
  <diagram id="KsrvPjBczi0uRQ7n-0tx" name="Page-1">
    <mxGraphModel dx="2036" dy="1800" grid="1" gridSize="10" guides="1" tooltips="1" connect="1" arrows="1" fold="1" page="1" pageScale="1" pageWidth="850" pageHeight="1100" math="0" shadow="0">
      <root>
        <mxCell id="0" />
        <mxCell id="1" parent="0" />
        <mxCell id="nR79GMOMtEsPVqGwIcki-1" value="" style="strokeWidth=2;html=1;shape=mxgraph.flowchart.start_2;whiteSpace=wrap;fillColor=#000000;strokeColor=#FF0000;" vertex="1" parent="1">
          <mxGeometry x="360" y="-140" width="100" height="100" as="geometry" />
        </mxCell>
        <mxCell id="nR79GMOMtEsPVqGwIcki-3" value="" style="endArrow=none;html=1;strokeWidth=3;" edge="1" parent="1">
          <mxGeometry width="50" height="50" relative="1" as="geometry">
            <mxPoint x="-435" y="60" as="sourcePoint" />
            <mxPoint x="980" y="60" as="targetPoint" />
          </mxGeometry>
        </mxCell>
        <mxCell id="nR79GMOMtEsPVqGwIcki-4" value="" style="endArrow=classic;html=1;strokeColor=#FF0000;exitX=0.5;exitY=1;exitDx=0;exitDy=0;exitPerimeter=0;" edge="1" parent="1" source="nR79GMOMtEsPVqGwIcki-1">
          <mxGeometry width="50" height="50" relative="1" as="geometry">
            <mxPoint x="410" y="40" as="sourcePoint" />
            <mxPoint x="410" y="60" as="targetPoint" />
          </mxGeometry>
        </mxCell>
      </root>
    </mxGraphModel>
  </diagram>
</mxfile>
